<?xml version="1.0" encoding="utf-8"?><!DOCTYPE svg PUBLIC "-//W3C//DTD SVG 1.1//EN" "http://www.w3.org/Graphics/SVG/1.1/DTD/svg11.dtd"><svg xmlns="http://www.w3.org/2000/svg" xmlns:xlink="http://www.w3.org/1999/xlink"><symbol viewBox="0 0 12 6.969" id="ui-chevron-down"><defs><style>.acls-1{fill:#0a2d50;fill-rule:evenodd}</style></defs><path id="aADD_copy_6" data-name="ADD copy 6" class="acls-1" d="M229.717 19.8l-4.9 4.921a1.025 1.025 0 0 1-.924.272.991.991 0 0 1-.82-.277l-4.766-4.79a1.022 1.022 0 0 1 0-1.439 1.009 1.009 0 0 1 1.43 0l4.161 4.182 4.339-4.357a1.043 1.043 0 0 1 1.48 0 1.054 1.054 0 0 1 0 1.488z" transform="translate(-218.031 -18.031)"/></symbol><symbol viewBox="240 330 100.32 121.44" id="ui-icon-pdf"><path fill="#FFF" d="M240 330h68.64v31.68h31.681v89.76H240V330z"/><path fill="#E12726" d="M295.44 403.92v-36.96h-13.2v36.96h-10.56l18.48 21.12 18.48-21.12z"/><path fill="#CED7DC" d="M308.64 330l31.681 31.68H308.64V330z"/></symbol><symbol viewBox="0 0 19.044 19.024" id="ui-nav-close"><path fill-rule="evenodd" clip-rule="evenodd" fill="#102D4F" d="M1.73.483l16.778 16.79c.396.397.396 1.042 0 1.438s-1.038.396-1.434 0L.297 1.921a1.019 1.019 0 0 1 0-1.438 1.013 1.013 0 0 1 1.433 0z"/><path fill-rule="evenodd" clip-rule="evenodd" fill="#102D4F" d="M18.737 1.795L1.824 18.715a1.048 1.048 0 0 1-1.485 0 1.053 1.053 0 0 1 0-1.487L17.252.308a1.047 1.047 0 0 1 1.484 0c.41.411.41 1.077.001 1.487z"/></symbol><symbol viewBox="243.576 341.532 100.674 75.582" id="ui-quote"><path fill="#FFF" d="M315.486 417.114c3.06-1.53 6.12-3.672 9.485-6.427 3.366-2.754 6.427-5.813 9.486-9.791 2.754-3.673 5.202-8.263 7.038-13.159s2.754-10.404 2.754-16.83c0-8.874-2.142-16.218-6.732-21.42-4.59-5.202-10.098-7.956-17.136-7.956-5.202 0-9.792 1.53-13.77 4.59-3.979 3.06-6.12 7.344-6.12 13.464 0 4.284 1.53 7.956 4.284 10.71 2.754 2.754 5.814 3.978 9.486 3.978 2.143 0 3.979-.306 4.896-.612 1.224-.306 2.448-.612 3.978-.612 1.53 0 2.754.612 3.979 1.836 1.224 1.224 1.529 3.672 1.529 7.344 0 3.06-.611 5.814-1.836 8.568-1.224 2.754-2.754 5.202-4.896 7.65-1.836 2.448-3.979 4.59-6.12 6.426s-3.978 3.366-5.813 4.284l5.508 7.957zm-56.916 0c3.06-1.53 6.12-3.672 9.486-6.427 3.366-2.754 6.426-5.813 9.486-9.791 2.754-3.673 5.202-8.263 7.038-13.159s2.754-10.404 2.754-16.83c0-8.874-2.142-16.218-6.732-21.42-4.59-5.202-10.098-7.956-17.136-7.956-5.202 0-9.792 1.53-13.77 4.59s-6.12 7.344-6.12 13.464c0 4.284 1.53 7.956 4.284 10.71 2.754 2.754 5.814 3.978 9.486 3.978 2.142 0 3.978-.306 4.896-.612 1.224-.306 2.448-.612 3.978-.612 1.53 0 2.754.612 3.978 1.836 1.224 1.224 1.53 3.672 1.53 7.344 0 3.06-.612 5.814-1.836 8.568-1.224 2.754-2.754 5.202-4.896 7.65-1.836 2.448-3.978 4.59-6.12 6.426s-3.978 3.366-5.814 4.284l5.508 7.957z"/></symbol></svg>