
<svg version="1.1" baseProfile="basic" id="Layer_1"
	 xmlns="http://www.w3.org/2000/svg" xmlns:xlink="http://www.w3.org/1999/xlink" x="0px" y="0px" width="19px"
	 height="19px" viewBox="0 0 19.044 19.024" xml:space="preserve">
<path fill-rule="evenodd" clip-rule="evenodd" fill="#102D4F" d="M1.73,0.483l16.778,16.79c0.396,0.397,0.396,1.042,0,1.438
	s-1.038,0.396-1.434,0L0.297,1.921c-0.396-0.397-0.396-1.041,0-1.438C0.693,0.087,1.334,0.087,1.73,0.483z"/>
<path fill-rule="evenodd" clip-rule="evenodd" fill="#102D4F" d="M18.737,1.795L1.824,18.715c-0.41,0.411-1.075,0.411-1.485,0
	c-0.41-0.409-0.41-1.076,0-1.487l16.913-16.92c0.41-0.411,1.075-0.411,1.484,0C19.146,0.719,19.146,1.385,18.737,1.795z"/>
</svg>
