<?xml version="1.0" encoding="utf-8"?>
<!-- Generator: Adobe Illustrator 16.0.0, SVG Export Plug-In . SVG Version: 6.00 Build 0)  -->
<!DOCTYPE svg PUBLIC "-//W3C//DTD SVG 1.1//EN" "http://www.w3.org/Graphics/SVG/1.1/DTD/svg11.dtd">
<svg version="1.1" id="Layer_1" xmlns="http://www.w3.org/2000/svg" xmlns:xlink="http://www.w3.org/1999/xlink" x="0px" y="0px"
	 width="33px" height="24px" viewBox="243.576 341.532 100.674 75.582"
	 enable-background="new 243.576 341.532 100.674 75.582" xml:space="preserve">
<path fill="#FFFFFF" d="M315.486,417.114c3.06-1.53,6.12-3.672,9.485-6.427c3.366-2.754,6.427-5.813,9.486-9.791
	c2.754-3.673,5.202-8.263,7.038-13.159s2.754-10.404,2.754-16.83c0-8.874-2.142-16.218-6.732-21.42
	c-4.59-5.202-10.098-7.956-17.136-7.956c-5.202,0-9.792,1.53-13.77,4.59c-3.979,3.06-6.12,7.344-6.12,13.464
	c0,4.284,1.53,7.956,4.284,10.71c2.754,2.754,5.814,3.978,9.486,3.978c2.143,0,3.979-0.306,4.896-0.612
	c1.224-0.306,2.448-0.612,3.978-0.612c1.53,0,2.754,0.612,3.979,1.836c1.224,1.224,1.529,3.672,1.529,7.344
	c0,3.06-0.611,5.814-1.836,8.568c-1.224,2.754-2.754,5.202-4.896,7.65c-1.836,2.448-3.979,4.59-6.12,6.426s-3.978,3.366-5.813,4.284
	L315.486,417.114z M258.57,417.114c3.06-1.53,6.12-3.672,9.486-6.427c3.366-2.754,6.426-5.813,9.486-9.791
	c2.754-3.673,5.202-8.263,7.038-13.159s2.754-10.404,2.754-16.83c0-8.874-2.142-16.218-6.732-21.42
	c-4.59-5.202-10.098-7.956-17.136-7.956c-5.202,0-9.792,1.53-13.77,4.59s-6.12,7.344-6.12,13.464c0,4.284,1.53,7.956,4.284,10.71
	c2.754,2.754,5.814,3.978,9.486,3.978c2.142,0,3.978-0.306,4.896-0.612c1.224-0.306,2.448-0.612,3.978-0.612
	c1.53,0,2.754,0.612,3.978,1.836c1.224,1.224,1.53,3.672,1.53,7.344c0,3.06-0.612,5.814-1.836,8.568
	c-1.224,2.754-2.754,5.202-4.896,7.65c-1.836,2.448-3.978,4.59-6.12,6.426s-3.978,3.366-5.814,4.284L258.57,417.114z"/>
</svg>
